<svg width="370" height="82" viewBox="0 0 370 82" fill="none" xmlns="http://www.w3.org/2000/svg">
<path d="M42.265 62L39.974 54.337H20.935L18.644 62H0.79L20.619 7.648H40.922L60.751 62H42.265ZM24.569 42.171H36.34L30.652 22.816H30.336L24.569 42.171ZM96.5633 62L95.2203 56.075C92.1656 60.657 87.7416 62.948 81.9483 62.948C76.313 62.948 71.968 61.1047 68.9133 57.418C65.8586 53.7313 64.3313 48.2803 64.3313 41.065C64.3313 33.9023 65.8586 28.504 68.9133 24.87C71.968 21.1833 76.313 19.34 81.9483 19.34C86.741 19.34 90.6383 20.9463 93.6403 24.159V4.725H109.361V62H96.5633ZM86.8463 30.953C82.317 30.953 80.0523 33.6653 80.0523 39.09V43.277C80.0523 48.649 82.317 51.335 86.8463 51.335C89.1636 51.335 90.9016 50.5187 92.0603 48.886C93.219 47.2533 93.7983 45.1203 93.7983 42.487V39.88C93.7983 37.2467 93.219 35.1137 92.0603 33.481C90.9016 31.7957 89.1636 30.953 86.8463 30.953ZM139.539 19.34C145.911 19.34 151.099 20.4197 155.102 22.579C159.104 24.6857 161.106 28.1353 161.106 32.928V49.202C161.106 50.0973 161.316 50.8347 161.738 51.414C162.159 51.9933 162.791 52.283 163.634 52.283H166.478V61.368C166.32 61.4733 165.898 61.6577 165.214 61.921C164.582 62.1317 163.66 62.3423 162.449 62.553C161.237 62.8163 159.842 62.948 158.262 62.948C155.207 62.948 152.679 62.5003 150.678 61.605C148.729 60.657 147.386 59.3667 146.649 57.734C144.647 59.314 142.409 60.578 139.934 61.526C137.458 62.474 134.562 62.948 131.244 62.948C121.448 62.948 116.55 59.0507 116.55 51.256C116.55 47.2007 117.629 44.1197 119.789 42.013C122.001 39.8537 125.161 38.379 129.269 37.589C133.377 36.799 138.749 36.404 145.385 36.404V34.35C145.385 32.7173 144.805 31.4797 143.647 30.637C142.541 29.7943 141.092 29.373 139.302 29.373C137.669 29.373 136.247 29.6627 135.036 30.242C133.877 30.8213 133.298 31.743 133.298 33.007V33.323H117.814C117.761 33.0597 117.735 32.691 117.735 32.217C117.735 28.267 119.604 25.1333 123.344 22.816C127.136 20.4987 132.534 19.34 139.539 19.34ZM145.385 43.83C140.908 43.83 137.59 44.3303 135.431 45.331C133.324 46.279 132.271 47.5693 132.271 49.202C132.271 51.8353 134.061 53.152 137.643 53.152C139.697 53.152 141.487 52.599 143.015 51.493C144.595 50.387 145.385 49.0177 145.385 47.385V43.83ZM199.876 19.34C205.511 19.34 209.856 21.1833 212.911 24.87C215.965 28.5567 217.493 34.0077 217.493 41.223C217.493 48.3857 215.965 53.8103 212.911 57.497C209.856 61.131 205.511 62.948 199.876 62.948C195.03 62.948 191.133 61.368 188.184 58.208V77.563H172.463V20.288H185.261L186.604 26.213C189.658 21.631 194.082 19.34 199.876 19.34ZM194.978 30.953C192.66 30.953 190.922 31.7693 189.764 33.402C188.605 35.0347 188.026 37.1677 188.026 39.801V42.408C188.026 45.0413 188.605 47.2007 189.764 48.886C190.922 50.5187 192.66 51.335 194.978 51.335C199.507 51.335 201.772 48.6227 201.772 43.198V39.011C201.772 33.639 199.507 30.953 194.978 30.953ZM252.884 20.288V30.953H244.036V46.832C244.036 48.728 244.352 50.1237 244.984 51.019C245.616 51.8617 246.775 52.283 248.46 52.283H252.884V61.526C251.62 61.9473 249.987 62.2897 247.986 62.553C245.985 62.8163 244.247 62.948 242.772 62.948C238.137 62.948 234.556 62.1053 232.028 60.42C229.553 58.7347 228.315 55.8643 228.315 51.809V30.953H222.469V20.288H228.947L232.344 7.648H244.036V20.288H252.884Z" fill="#4600FF"/>
<rect x="275" width="95" height="82" rx="20" fill="#4600FF"/>
<path d="M288.699 23.3622V13.7273H334.094V23.3622H317.172V69H305.621V23.3622H288.699ZM353.256 13.7273V69H341.57V13.7273H353.256Z" fill="white"/>
</svg>
